<?xml version="1.0" standalone="no"?>
<!DOCTYPE svg PUBLIC "-//W3C//DTD SVG 20010904//EN"
 "http://www.w3.org/TR/2001/REC-SVG-20010904/DTD/svg10.dtd">
<svg version="1.0" xmlns="http://www.w3.org/2000/svg"
 width="720.000000pt" height="872.000000pt" viewBox="0 0 720.000000 872.000000"
 preserveAspectRatio="xMidYMid meet">

<g transform="translate(0.000000,872.000000) scale(0.100000,-0.100000)"
fill="#000000" stroke="none">
<path d="M3226 8711 c-3 -4 25 -11 62 -15 270 -28 645 -164 892 -323 104 -68
264 -226 309 -306 25 -44 37 -57 50 -52 9 3 61 13 116 22 197 30 437 4 680
-73 194 -63 477 -213 658 -350 31 -24 57 -40 57 -35 0 15 -166 185 -237 243
-340 278 -802 443 -1113 397 -128 -18 -121 -20 -171 41 -167 206 -662 410
-1089 449 -140 13 -207 14 -214 2z m1789 -548 c119 -22 256 -69 380 -127 107
-51 288 -157 300 -176 3 -5 -45 15 -107 45 -272 131 -559 194 -818 181 -69 -3
-147 -11 -174 -16 -27 -6 -51 -9 -52 -7 -2 1 2 21 7 44 10 37 15 42 56 54 109
30 257 31 408 2z"/>
<path d="M4038 8667 c267 -90 450 -194 536 -307 l38 -50 157 0 c217 0 341 -20
475 -76 93 -38 94 -38 51 1 -139 127 -512 300 -842 391 -189 51 -362 84 -477
90 l-101 5 163 -54z m782 -210 c58 -24 141 -63 185 -86 64 -33 73 -41 45 -36
-19 3 -119 8 -222 12 -104 3 -188 9 -188 14 0 22 53 139 64 139 6 0 58 -20
116 -43z"/>
<path d="M2737 8613 c-72 -6 -46 -23 36 -23 104 0 313 -26 446 -56 334 -75
589 -206 805 -414 121 -117 194 -207 304 -373 59 -89 89 -126 99 -123 8 3 52
17 99 30 297 86 641 71 944 -41 201 -74 424 -205 615 -359 173 -139 297 -265
528 -534 l39 -45 -32 60 c-18 33 -69 116 -114 185 -143 218 -300 400 -471 547
-375 324 -794 481 -1225 460 -106 -5 -265 -26 -320 -42 -10 -3 -28 15 -50 48
-46 68 -167 195 -255 267 -258 211 -595 358 -928 405 -94 14 -390 18 -520 8z
m2436 -773 c309 -60 608 -216 852 -444 59 -55 57 -54 -85 40 -331 219 -619
319 -955 331 -178 6 -323 -10 -465 -51 -96 -28 -105 -23 -86 49 l12 50 85 17
c211 43 449 46 642 8z"/>
<path d="M2715 8490 c-280 -21 -529 -92 -805 -231 -152 -76 -176 -96 -70 -58
378 136 780 195 1080 159 574 -71 994 -429 1185 -1013 25 -75 45 -144 45 -153
0 -12 -11 -14 -56 -12 l-56 3 -34 115 c-113 378 -359 680 -693 853 -233 121
-425 164 -691 154 -723 -28 -1400 -511 -1954 -1395 -266 -425 -417 -917 -493
-1607 -25 -233 -25 -892 0 -1125 73 -664 214 -1184 455 -1675 119 -242 197
-352 358 -504 537 -509 1303 -688 1988 -466 108 35 285 107 324 131 12 8 22
11 22 7 0 -5 -35 -53 -78 -108 -243 -311 -368 -505 -445 -685 -71 -168 -70
-282 4 -429 85 -170 240 -261 444 -261 217 0 347 90 401 278 3 10 170 12 814
12 l810 0 35 22 c19 13 35 26 35 31 0 4 -385 7 -856 7 l-856 0 -30 25 c-60 51
-179 57 -289 16 -74 -29 -92 -27 -128 14 -61 70 -157 65 1157 65 l1187 1 35
29 35 29 -1232 1 -1233 0 0 28 c0 15 3 37 6 50 l6 22 1287 0 1286 1 35 29 34
30 -1316 0 -1317 0 21 60 20 60 1357 0 1357 0 29 30 29 30 -1367 0 c-752 0
-1367 2 -1367 4 0 3 14 27 31 55 l32 51 1383 0 1383 0 26 27 c14 15 25 30 25
33 0 3 -621 4 -1381 2 -991 -1 -1380 1 -1377 9 2 6 21 33 43 59 l40 49 1386 1
1386 0 21 23 c12 13 22 26 22 30 0 4 -621 8 -1380 9 l-1379 3 40 53 40 52
1383 0 1384 0 16 25 c9 13 16 27 16 30 0 3 -619 5 -1375 5 -756 0 -1375 2
-1375 5 0 3 16 30 36 60 l37 55 1382 0 1383 0 16 25 c9 13 16 27 16 30 0 3
-621 5 -1379 5 l-1380 0 36 55 36 55 1378 0 1378 0 16 30 16 30 -1375 0 -1375
0 36 60 35 60 1373 0 1372 0 11 25 c7 14 12 28 12 30 0 3 -614 6 -1364 7
l-1364 3 32 55 32 55 1365 3 1364 2 11 25 c7 13 9 26 6 30 -3 3 -614 5 -1358
5 l-1353 0 32 55 32 55 1351 0 1351 0 11 25 c7 14 12 28 12 30 0 3 -605 5
-1345 5 l-1345 0 30 60 30 60 1339 0 1338 0 11 24 c6 13 8 27 5 30 -4 3 -602
6 -1330 6 -728 0 -1323 4 -1323 8 0 4 13 29 30 55 l30 47 1317 0 c1250 0 1318
1 1325 17 3 10 7 24 7 31 1 10 -262 12 -1309 10 -721 -2 -1310 1 -1310 5 0 4
11 30 25 57 l25 50 1304 0 c1180 0 1304 2 1310 16 18 47 91 44 -1284 44 -881
0 -1290 3 -1290 10 0 6 11 33 25 60 l25 50 1284 0 1284 0 6 23 c3 12 6 25 6
30 0 4 -574 7 -1275 7 l-1275 0 30 60 30 60 1259 0 1259 0 6 23 c3 12 6 25 6
30 0 4 -562 7 -1250 7 -687 0 -1250 2 -1250 5 0 3 11 28 25 55 l25 50 1234 0
c1116 0 1234 2 1240 16 18 46 86 44 -1220 44 -674 0 -1224 3 -1222 8 2 4 11
28 22 55 l19 47 1213 0 c1041 0 1214 2 1214 14 0 8 3 21 6 30 6 14 -106 16
-1199 18 l-1204 3 25 58 25 57 1182 0 1183 0 6 22 c3 13 2 26 -2 30 -5 5 -533
7 -1175 6 -642 -2 -1167 -1 -1167 2 0 3 9 28 19 55 l19 50 1161 3 1161 2 0 30
0 30 -1146 0 -1146 0 6 23 c3 13 12 40 21 60 l15 37 1130 0 1130 0 0 30 0 30
-1121 0 c-955 0 -1120 2 -1116 14 3 8 11 32 18 55 l12 41 1104 0 1103 0 0 30
0 30 -1093 0 -1094 0 16 60 16 60 1077 0 1078 0 0 30 0 30 -1071 0 -1071 0 7
53 c4 28 9 55 12 60 2 4 479 7 1060 7 958 0 1055 1 1049 16 -3 9 -6 20 -6 25
0 5 -419 9 -1049 9 -578 0 -1052 3 -1054 8 -3 4 -7 30 -8 57 l-4 50 1048 0
c971 0 1047 1 1047 17 0 45 51 43 -1059 40 l-1050 -2 -16 52 c-9 29 -19 59
-21 66 -5 9 209 12 1050 12 1125 0 1068 -2 1050 44 -6 14 -109 16 -1070 16
l-1064 0 -25 50 c-14 27 -25 52 -25 55 0 3 484 5 1074 5 l1075 0 -10 30 -11
30 -1087 0 -1087 0 -43 53 -43 52 1106 3 c772 1 1106 5 1106 13 0 6 -5 19 -10
30 -10 19 -34 19 -1136 19 l-1125 0 -64 53 c-35 28 -64 55 -64 60 -1 4 523 7
1164 7 l1166 0 -16 30 -16 30 -1204 0 -1204 0 -63 34 c-35 18 -85 42 -113 51
-27 10 -54 22 -60 27 -5 4 575 8 1289 8 l1297 0 -18 30 -17 30 -1580 0 -1580
0 54 55 54 55 1488 0 c862 0 1488 4 1488 9 0 5 -8 18 -17 30 l-18 21 -1447 3
-1448 2 30 45 c16 25 31 50 33 55 3 7 476 12 1380 15 l1377 5 -25 28 -26 27
-1330 0 c-732 0 -1329 3 -1327 8 2 4 11 28 22 55 l19 47 1263 0 c695 0 1264 4
1264 8 0 5 -10 18 -23 30 l-23 22 -1227 0 c-675 0 -1227 3 -1227 6 0 3 7 30
16 60 l15 54 1155 0 c635 0 1154 4 1154 8 0 5 -10 18 -23 30 l-23 22 -1123 0
-1124 0 7 38 c3 20 6 45 6 55 0 16 57 17 1055 17 580 0 1055 2 1055 5 0 3 -12
17 -27 30 l-28 24 -1024 1 -1023 0 6 31 c3 17 6 42 6 55 l0 24 953 0 952 1
-35 29 -34 30 -918 0 -918 0 0 60 0 60 832 2 832 3 -42 28 -42 27 -727 0 -727
0 54 55 54 55 581 2 580 3 -40 25 -40 25 -495 5 -495 5 50 32 c59 39 179 87
273 110 92 22 310 22 417 -1 133 -29 308 -92 437 -157 459 -234 952 -695 1285
-1200 73 -111 181 -315 203 -384 23 -70 22 -19 -1 67 -82 308 -312 730 -586
1074 -190 238 -504 522 -713 644 -275 161 -515 232 -780 233 -205 1 -361 -32
-554 -118 -55 -25 -101 -43 -102 -42 -2 1 -17 33 -34 71 -226 504 -618 840
-1105 946 -82 17 -321 43 -360 38 -5 0 -55 -4 -110 -8z m2490 -965 c328 -66
640 -245 950 -547 76 -73 170 -171 210 -218 111 -132 279 -363 319 -440 8 -16
4 -12 -148 159 -200 226 -510 489 -746 636 -352 218 -700 319 -985 285 -196
-23 -396 -109 -525 -226 -22 -20 -42 -35 -45 -33 -2 3 10 51 28 108 l31 104
121 58 c205 99 382 139 590 133 66 -1 156 -10 200 -19z m-1031 -442 c12 -74
12 -73 -54 -73 -50 0 -60 3 -60 18 0 9 -3 34 -6 55 l-7 37 60 0 60 0 7 -37z
m-155 -2082 c62 -19 161 -76 161 -92 0 -5 -122 -9 -280 -9 -158 0 -280 4 -280
9 0 16 98 73 158 92 74 23 165 24 241 0z m253 -206 c15 -27 28 -53 28 -57 0
-9 -784 -11 -793 -2 -8 9 39 101 55 107 7 3 164 5 348 4 l335 -2 27 -50z m43
-125 c3 -5 9 -32 12 -60 l6 -50 -432 0 -431 0 0 34 c0 19 4 46 10 60 l10 26
409 0 c256 0 412 -4 416 -10z m19 -192 c3 -13 6 -40 6 -61 l0 -37 -412 2 -413
3 -11 25 c-7 14 -15 40 -19 58 l-7 32 425 0 425 0 6 -22z m-4 -213 l0 -55
-354 0 -353 0 -32 51 c-17 28 -31 52 -31 55 0 2 173 4 385 4 l385 0 0 -55z
m-15 -162 c-4 -27 -8 -54 -10 -60 -3 -10 -72 -13 -298 -13 l-293 0 -27 55
c-15 31 -27 58 -27 60 0 3 149 5 331 5 l330 0 -6 -47z m-30 -180 c-4 -27 -9
-51 -12 -55 -2 -5 -114 -8 -248 -8 l-243 0 -17 43 c-9 23 -19 48 -22 55 -4 9
54 12 272 12 l277 0 -7 -47z m-33 -148 c-2 -11 -8 -37 -13 -57 l-10 -38 -198
0 -199 0 -11 44 c-6 24 -13 51 -17 60 -6 15 13 16 222 14 223 -3 229 -4 226
-23z m-42 -158 c0 -2 -7 -27 -15 -55 l-16 -52 -158 0 -158 0 -7 31 c-3 17 -6
42 -6 55 l0 24 180 0 c99 0 180 -1 180 -3z m-60 -174 c0 -5 -8 -29 -17 -55
l-17 -48 -123 0 -123 0 0 55 0 55 140 0 c77 0 140 -3 140 -7z m-69 -185 c-5
-13 -16 -40 -25 -60 l-16 -38 -83 0 -82 0 2 58 c1 31 2 58 3 60 0 1 47 2 105
2 104 0 104 0 96 -22z m-81 -168 c0 -6 -11 -33 -25 -60 -24 -47 -27 -50 -65
-50 l-40 0 0 60 0 60 65 0 c38 0 65 -4 65 -10z m-105 -199 c-23 -45 -35 -47
-35 -7 0 32 3 36 25 36 25 0 25 -1 10 -29z"/>
<path d="M1 4237 c-2 -50 20 -319 35 -442 117 -934 437 -1698 914 -2176 341
-343 730 -521 1220 -560 80 -6 173 -9 208 -6 69 7 71 4 52 -63 -6 -19 -15 -75
-20 -123 -24 -207 36 -394 173 -544 79 -87 259 -207 392 -262 l50 -21 -30 26
c-243 212 -331 327 -372 487 -21 84 -13 206 22 312 30 91 122 271 223 436 39
63 69 115 68 116 -1 1 -67 -9 -146 -22 -406 -66 -712 -58 -1025 25 -700 186
-1218 777 -1520 1735 -91 289 -155 568 -215 940 -16 94 -29 157 -29 142z
m2792 -2979 c-80 -132 -179 -340 -203 -428 -25 -92 -27 -224 -4 -301 22 -75
67 -162 120 -231 25 -32 40 -58 35 -58 -6 0 -51 39 -99 87 -109 108 -164 209
-188 343 -17 97 -13 165 18 319 l21 103 56 44 c111 85 286 213 293 213 4 1
-18 -41 -49 -91z"/>
<path d="M799 1622 c125 -185 318 -389 486 -515 101 -75 327 -193 450 -233 44
-14 143 -40 220 -58 l139 -32 17 -84 c32 -159 89 -262 202 -366 65 -59 188
-139 261 -169 l39 -16 -33 43 c-118 156 -217 343 -244 458 -9 38 -16 113 -16
181 l0 116 -101 1 c-436 7 -927 239 -1359 640 l-104 97 43 -63z m1481 -821 c0
-76 6 -119 25 -185 25 -88 91 -229 140 -300 14 -21 24 -41 21 -43 -9 -9 -102
65 -162 130 -97 103 -163 256 -164 377 0 32 6 41 61 83 34 26 65 44 70 41 5
-3 9 -49 9 -103z"/>
<path d="M1355 945 c175 -162 405 -340 620 -481 131 -85 225 -140 225 -130 0
2 -16 28 -36 57 -45 66 -105 192 -134 280 l-22 66 -91 12 c-156 20 -373 103
-567 216 l-45 26 50 -46z m636 -287 c6 -24 28 -80 50 -126 21 -46 35 -82 30
-80 -24 9 -220 144 -218 150 2 6 118 97 124 98 1 0 7 -19 14 -42z"/>
<path d="M3741 301 c-107 -124 -244 -218 -391 -268 l-95 -33 130 5 c332 12
409 17 540 31 267 29 617 100 725 147 32 14 13 15 -262 16 l-298 1 0 60 0 60
445 0 c380 0 450 2 475 15 17 9 30 18 30 20 0 3 -281 5 -624 5 l-624 0 -51
-59z m56 -118 l-6 -118 -68 -6 c-37 -4 -104 -7 -148 -8 l-80 -1 45 26 c64 36
173 126 217 179 20 25 39 45 41 45 2 0 1 -53 -1 -117z"/>
</g>
</svg>
